<svg width="18" height="18" viewBox="0 0 25 25" fill="none" xmlns="http://www.w3.org/2000/svg">
<path d="M12.5 25C10.0277 25 7.61098 24.2669 5.55536 22.8934C3.49975 21.5198 1.89759 19.5676 0.951499 17.2835C0.00540696 14.9994 -0.242126 12.4861 0.240198 10.0613C0.722523 7.63657 1.91305 5.40928 3.66122 3.66113C5.40939 1.91298 7.63668 0.722479 10.0615 0.240176C12.4862 -0.242126 14.9995 0.00543016 17.2836 0.951542C19.5677 1.89765 21.5199 3.49983 22.8934 5.55546C24.2669 7.61109 25 10.0278 25 12.5001C24.9962 15.8142 23.6781 18.9914 21.3347 21.3348C18.9913 23.6781 15.814 24.9963 12.5 25Z" fill="#E6E6E6"/>
</svg>
