<svg width="160" height="111" viewBox="0 0 160 111" fill="none" xmlns="http://www.w3.org/2000/svg">
<g clip-path="url(#clip0)">
<path d="M145.654 57.8083C143.497 63.9073 140.492 69.672 136.726 74.9325C136.64 75.0548 136.551 75.1744 136.463 75.296L125.038 71.5962C125.09 71.4783 125.146 71.3461 125.206 71.2018C128.804 62.6913 150.457 10.8152 148.158 0C148.377 0.888089 155.551 30.2698 145.654 57.8083Z" fill="#E6E6E6"/>
<path d="M138.931 75.6463C138.791 75.7514 138.647 75.8553 138.502 75.9565L129.932 73.181C130.035 73.0862 130.154 72.9745 130.291 72.8484C132.535 70.7515 139.2 64.4687 145.655 57.8083C152.591 50.6509 159.288 43.0586 160 39.7567C159.866 40.51 155.639 63.43 138.931 75.6463Z" fill="#E6E6E6"/>
<path d="M151.841 110.867H4.92613C3.61964 110.867 2.36666 110.348 1.44283 109.424C0.519001 108.5 0 107.248 0 105.941C53.2565 99.7516 105.512 99.7516 156.767 105.941C156.767 107.248 156.248 108.5 155.324 109.424C154.4 110.348 153.147 110.867 151.841 110.867Z" fill="#2F2E41"/>
<path d="M156.767 106.231L0 105.941L18.1687 75.37L18.2557 75.2251V7.85013C18.2556 7.03234 18.4166 6.22255 18.7295 5.467C19.0425 4.71145 19.5012 4.02494 20.0794 3.44668C20.6577 2.86841 21.3442 2.40972 22.0997 2.0968C22.8553 1.78388 23.6651 1.62286 24.4829 1.62292H131.415C132.232 1.62286 133.042 1.78388 133.798 2.09681C134.553 2.40973 135.24 2.86842 135.818 3.44668C136.396 4.02494 136.855 4.71145 137.168 5.467C137.481 6.22255 137.642 7.03234 137.642 7.85013V75.6887L156.767 106.231Z" fill="#3F3D56"/>
<path d="M24.3409 5.96948C23.8031 5.97009 23.2875 6.18399 22.9073 6.56426C22.527 6.94453 22.3131 7.46011 22.3125 7.99789V69.4296C22.3131 69.9674 22.527 70.483 22.9073 70.8633C23.2876 71.2435 23.8031 71.4574 24.3409 71.4581H132.426C132.964 71.4574 133.479 71.2435 133.86 70.8632C134.24 70.483 134.454 69.9674 134.454 69.4296V7.99789C134.454 7.46012 134.24 6.94455 133.86 6.56428C133.479 6.18402 132.964 5.97011 132.426 5.96948H24.3409Z" fill="white"/>
<path d="M25.0513 79.5717C24.8851 79.5719 24.7224 79.6197 24.5825 79.7094C24.4426 79.799 24.3312 79.9268 24.2615 80.0776L18.6631 92.2481C18.6022 92.3805 18.5755 92.5262 18.5856 92.6716C18.5957 92.817 18.6422 92.9576 18.7208 93.0804C18.7995 93.2031 18.9077 93.3041 19.0356 93.3741C19.1635 93.4441 19.307 93.4807 19.4528 93.4807H137.183C137.331 93.4807 137.477 93.4429 137.606 93.3707C137.736 93.2985 137.845 93.1945 137.923 93.0684C138 92.9423 138.045 92.7985 138.051 92.6504C138.058 92.5024 138.027 92.3551 137.96 92.2226L131.875 80.0522C131.803 79.9075 131.693 79.7858 131.555 79.7009C131.418 79.6159 131.259 79.5712 131.098 79.5717L25.0513 79.5717Z" fill="#2F2E41"/>
<path d="M77.9487 4.9553C78.6689 4.9553 79.2527 4.37149 79.2527 3.65133C79.2527 2.93116 78.6689 2.34735 77.9487 2.34735C77.2286 2.34735 76.6448 2.93116 76.6448 3.65133C76.6448 4.37149 77.2286 4.9553 77.9487 4.9553Z" fill="white"/>
<path d="M66.3768 95.799C66.1857 95.7992 66 95.8623 65.8483 95.9785C65.6967 96.0948 65.5874 96.2577 65.5375 96.4422L64.1332 101.658C64.0985 101.787 64.0939 101.922 64.1198 102.053C64.1457 102.184 64.2014 102.307 64.2825 102.413C64.3637 102.519 64.4681 102.605 64.5878 102.664C64.7074 102.723 64.8391 102.753 64.9725 102.753H91.679C91.8176 102.753 91.9542 102.72 92.0773 102.657C92.2005 102.593 92.3067 102.501 92.3871 102.388C92.4674 102.275 92.5196 102.145 92.5393 102.008C92.559 101.871 92.5456 101.731 92.5002 101.6L90.6948 96.3839C90.6356 96.2131 90.5247 96.065 90.3775 95.9602C90.2303 95.8554 90.054 95.799 89.8733 95.799L66.3768 95.799Z" fill="#2F2E41"/>
<path d="M137.642 74.2109V75.3699H18.1687L18.2587 75.2251V74.2109H137.642Z" fill="#2F2E41"/>
<path d="M100.498 16.8232H72.3095V17.338H100.498C101.886 17.338 103.217 17.8894 104.198 18.8707C105.18 19.852 105.731 21.183 105.731 22.5708C105.731 23.9586 105.18 25.2896 104.198 26.2709C103.217 27.2522 101.886 27.8035 100.498 27.8035H57.8438C56.456 27.8035 55.1251 27.2522 54.1437 26.2709C53.1624 25.2896 52.6111 23.9586 52.6111 22.5708C52.6111 21.183 53.1624 19.852 54.1437 18.8707C55.1251 17.8894 56.456 17.338 57.8438 17.338H59.4378V16.8232H57.8438C56.3201 16.8241 54.859 17.43 53.7819 18.5078C52.7047 19.5856 52.0996 21.047 52.0996 22.5708C52.0996 24.0946 52.7047 25.556 53.7819 26.6338C54.859 27.7116 56.3201 28.3175 57.8438 28.3184H100.498C101.253 28.3188 102.001 28.1705 102.699 27.8819C103.396 27.5932 104.03 27.1699 104.564 26.6362C105.099 26.1024 105.522 25.4686 105.811 24.7711C106.1 24.0735 106.249 23.3259 106.249 22.5708C106.249 21.8157 106.1 21.0681 105.811 20.3705C105.522 19.6729 105.099 19.0392 104.564 18.5054C104.03 17.9717 103.396 17.5484 102.699 17.2597C102.001 16.9711 101.253 16.8227 100.498 16.8232Z" fill="#E6E6E6"/>
<path d="M100.498 34.5861H72.3095V35.1009H100.498C101.885 35.1018 103.215 35.6535 104.196 36.6347C105.177 37.6159 105.728 38.9464 105.728 40.3337C105.728 41.7209 105.177 43.0514 104.196 44.0326C103.215 45.0139 101.885 45.5656 100.498 45.5664H57.8438C56.456 45.5664 55.1251 45.0151 54.1437 44.0338C53.1624 43.0525 52.6111 41.7215 52.6111 40.3337C52.6111 38.9459 53.1624 37.6149 54.1437 36.6336C55.1251 35.6522 56.456 35.1009 57.8438 35.1009H59.4378V34.5861H57.8438C56.3201 34.587 54.859 35.1929 53.7819 36.2707C52.7047 37.3485 52.0996 38.8099 52.0996 40.3337C52.0996 41.8575 52.7047 43.3189 53.7819 44.3967C54.859 45.4744 56.3201 46.0804 57.8438 46.0813H100.498C101.253 46.0817 102.001 45.9334 102.699 45.6447C103.396 45.3561 104.03 44.9328 104.564 44.399C105.099 43.8653 105.522 43.2315 105.811 42.534C106.1 41.8364 106.249 41.0887 106.249 40.3337C106.249 39.5786 106.1 38.8309 105.811 38.1334C105.522 37.4358 105.099 36.8021 104.564 36.2683C104.03 35.7345 103.396 35.3112 102.699 35.0226C102.001 34.734 101.253 34.5856 100.498 34.5861Z" fill="#E6E6E6"/>
<path d="M100.498 52.3489H72.3094V52.8637H100.498C101.886 52.8637 103.217 53.415 104.198 54.3964C105.18 55.3777 105.731 56.7087 105.731 58.0965C105.731 59.4843 105.18 60.8153 104.198 61.7966C103.217 62.7779 101.886 63.3292 100.498 63.3292H57.8438C56.456 63.3292 55.125 62.7779 54.1437 61.7966C53.1624 60.8153 52.6111 59.4843 52.6111 58.0965C52.6111 56.7087 53.1624 55.3777 54.1437 54.3964C55.125 53.415 56.456 52.8637 57.8438 52.8637H59.4378V52.3489H57.8438C56.3194 52.3489 54.8575 52.9544 53.7796 54.0323C52.7017 55.1102 52.0962 56.5721 52.0962 58.0965C52.0962 59.6208 52.7017 61.0828 53.7796 62.1606C54.8575 63.2385 56.3194 63.8441 57.8438 63.8441H100.498C101.253 63.8441 102 63.6954 102.698 63.4066C103.395 63.1177 104.029 62.6944 104.562 62.1606C105.096 61.6269 105.519 60.9933 105.808 60.296C106.097 59.5987 106.246 58.8513 106.246 58.0965C106.246 57.3417 106.097 56.5943 105.808 55.897C105.519 55.1996 105.096 54.566 104.562 54.0323C104.029 53.4986 103.395 53.0752 102.698 52.7864C102 52.4975 101.253 52.3489 100.498 52.3489Z" fill="#E6E6E6"/>
<path d="M62.6193 15.463C62.2177 15.4695 61.8347 15.6336 61.5529 15.92C61.2712 16.2063 61.1133 16.592 61.1133 16.9937C61.1133 17.3954 61.2712 17.781 61.5529 18.0674C61.8347 18.3537 62.2177 18.5179 62.6193 18.5244H69.3346C69.5356 18.5277 69.7353 18.4914 69.9223 18.4175C70.1093 18.3436 70.2799 18.2336 70.4244 18.0938C70.5688 17.954 70.6843 17.7871 70.7643 17.6027C70.8443 17.4182 70.8872 17.2198 70.8905 17.0188C70.8938 16.8178 70.8574 16.6181 70.7836 16.4311C70.7097 16.2442 70.5997 16.0736 70.4599 15.9291C70.3201 15.7846 70.1532 15.6691 69.9688 15.5891C69.7843 15.5091 69.5859 15.4663 69.3849 15.463C69.3681 15.4627 69.3514 15.4627 69.3346 15.463H62.6193Z" fill="#3F3D56"/>
<path d="M62.6193 33.4832C62.2177 33.4898 61.8347 33.6539 61.5529 33.9403C61.2712 34.2266 61.1133 34.6122 61.1133 35.014C61.1133 35.4157 61.2712 35.8013 61.5529 36.0877C61.8347 36.374 62.2177 36.5381 62.6193 36.5447H69.3346C69.7406 36.5513 70.1326 36.3965 70.4244 36.1141C70.7161 35.8318 70.8838 35.4451 70.8905 35.0391C70.8971 34.6331 70.7422 34.2411 70.4599 33.9494C70.1775 33.6576 69.7909 33.4899 69.3849 33.4832C69.3681 33.483 69.3514 33.483 69.3346 33.4832H62.6193Z" fill="#3F3D56"/>
<path d="M62.6194 50.9887C62.2178 50.9952 61.8348 51.1594 61.5531 51.4457C61.2714 51.7321 61.1135 52.1177 61.1135 52.5194C61.1135 52.9211 61.2714 53.3067 61.5531 53.593C61.8348 53.8794 62.2178 54.0435 62.6194 54.0501H69.3348C69.7407 54.0567 70.1327 53.9019 70.4245 53.6195C70.7163 53.3372 70.8839 52.9505 70.8906 52.5445C70.8973 52.1385 70.7424 51.7466 70.46 51.4548C70.1777 51.163 69.791 50.9953 69.385 50.9887C69.3683 50.9884 69.3515 50.9884 69.3348 50.9887H62.6194Z" fill="#3F3D56"/>
<path d="M59.956 21.0401C59.5543 21.0467 59.1713 21.2108 58.8896 21.4971C58.6079 21.7835 58.45 22.1691 58.45 22.5708C58.45 22.9726 58.6079 23.3582 58.8896 23.6445C59.1713 23.9309 59.5543 24.095 59.956 24.1015H98.3355C98.5365 24.1048 98.7362 24.0685 98.9232 23.9946C99.1102 23.9208 99.2808 23.8108 99.4253 23.671C99.5697 23.5312 99.6853 23.3643 99.7652 23.1798C99.8452 22.9954 99.8881 22.797 99.8914 22.596C99.8947 22.3949 99.8583 22.1953 99.7845 22.0083C99.7106 21.8213 99.6006 21.6507 99.4608 21.5062C99.321 21.3618 99.1541 21.2462 98.9696 21.1663C98.7852 21.0863 98.5868 21.0434 98.3858 21.0401C98.369 21.0398 98.3523 21.0398 98.3355 21.0401H59.956Z" fill="#F2994A"/>
<path d="M59.9561 38.8029C59.5545 38.8095 59.1715 38.9737 58.8898 39.26C58.6081 39.5464 58.4502 39.932 58.4502 40.3336C58.4502 40.7353 58.6081 41.1209 58.8898 41.4073C59.1715 41.6936 59.5545 41.8578 59.9561 41.8644H98.3356C98.5366 41.8677 98.7363 41.8313 98.9233 41.7575C99.1103 41.6836 99.2809 41.5736 99.4254 41.4338C99.5698 41.294 99.6854 41.1271 99.7653 40.9426C99.8453 40.7582 99.8882 40.5598 99.8915 40.3588C99.8948 40.1578 99.8584 39.9581 99.7846 39.7711C99.7107 39.5841 99.6007 39.4135 99.4609 39.269C99.3211 39.1246 99.1542 39.0091 98.9698 38.9291C98.7853 38.8491 98.5869 38.8062 98.3859 38.8029C98.3691 38.8027 98.3524 38.8027 98.3356 38.8029H59.9561Z" fill="#F2994A"/>
<path d="M59.9561 56.5658C59.5545 56.5723 59.1715 56.7365 58.8898 57.0228C58.6081 57.3092 58.4502 57.6948 58.4502 58.0965C58.4502 58.4982 58.6081 58.8838 58.8898 59.1701C59.1715 59.4565 59.5545 59.6206 59.9561 59.6272H98.3356C98.5366 59.6305 98.7363 59.5942 98.9233 59.5203C99.1103 59.4464 99.2809 59.3364 99.4254 59.1966C99.5698 59.0568 99.6854 58.8899 99.7653 58.7055C99.8453 58.521 99.8882 58.3226 99.8915 58.1216C99.8948 57.9206 99.8584 57.7209 99.7846 57.5339C99.7107 57.3469 99.6007 57.1763 99.4609 57.0319C99.3211 56.8874 99.1542 56.7719 98.9698 56.6919C98.7853 56.6119 98.5869 56.5691 98.3859 56.5658C98.3691 56.5655 98.3524 56.5655 98.3356 56.5658H59.9561Z" fill="#E6E6E6"/>
<path d="M45.7014 25.5156C47.3944 25.5156 48.7668 24.1432 48.7668 22.4502C48.7668 20.7573 47.3944 19.3848 45.7014 19.3848C44.0084 19.3848 42.636 20.7573 42.636 22.4502C42.636 24.1432 44.0084 25.5156 45.7014 25.5156Z" fill="#F2994A"/>
<path d="M45.4172 23.7096L44.5242 22.5614L45.0435 22.1575L45.4664 22.7011L46.8948 21.1932L47.3725 21.6459L45.4172 23.7096Z" fill="white"/>
<path d="M45.7014 43.2785C47.3944 43.2785 48.7668 41.906 48.7668 40.213C48.7668 38.5201 47.3944 37.1476 45.7014 37.1476C44.0084 37.1476 42.636 38.5201 42.636 40.213C42.636 41.906 44.0084 43.2785 45.7014 43.2785Z" fill="#F2994A"/>
<path d="M45.4172 41.4725L44.5242 40.3243L45.0435 39.9203L45.4664 40.464L46.8948 38.9561L47.3725 39.4087L45.4172 41.4725Z" fill="white"/>
<path d="M45.7014 61.0413C47.3944 61.0413 48.7668 59.6689 48.7668 57.9759C48.7668 56.283 47.3944 54.9105 45.7014 54.9105C44.0084 54.9105 42.636 56.283 42.636 57.9759C42.636 59.6689 44.0084 61.0413 45.7014 61.0413Z" fill="#E6E6E6"/>
<path d="M112.891 25.5156C114.584 25.5156 115.957 24.1432 115.957 22.4502C115.957 20.7573 114.584 19.3848 112.891 19.3848C111.198 19.3848 109.826 20.7573 109.826 22.4502C109.826 24.1432 111.198 25.5156 112.891 25.5156Z" fill="#E6E6E6"/>
<path d="M112.891 43.2785C114.584 43.2785 115.957 41.906 115.957 40.213C115.957 38.5201 114.584 37.1476 112.891 37.1476C111.198 37.1476 109.826 38.5201 109.826 40.213C109.826 41.906 111.198 43.2785 112.891 43.2785Z" fill="#E6E6E6"/>
<path d="M112.891 61.0413C114.584 61.0413 115.957 59.6689 115.957 57.9759C115.957 56.283 114.584 54.9105 112.891 54.9105C111.198 54.9105 109.826 56.283 109.826 57.9759C109.826 59.6689 111.198 61.0413 112.891 61.0413Z" fill="#E6E6E6"/>
<path d="M45.4172 59.2354L44.5242 58.0872L45.0435 57.6832L45.4664 58.2269L46.8948 56.719L47.3725 57.1714L45.4172 59.2354Z" fill="white"/>
<path d="M112.117 21.4656L111.862 21.7208L113.576 23.4349L113.831 23.1797L112.117 21.4656Z" fill="white"/>
<path d="M113.666 21.4656L111.952 23.1797L112.207 23.4348L113.921 21.7207L113.666 21.4656Z" fill="white"/>
<path d="M112.117 39.2284L111.862 39.4836L113.576 41.1977L113.831 40.9425L112.117 39.2284Z" fill="white"/>
<path d="M113.666 39.2285L111.952 40.9426L112.207 41.1977L113.921 39.4836L113.666 39.2285Z" fill="white"/>
<path d="M112.117 56.9913L111.862 57.2464L113.576 58.9605L113.831 58.7054L112.117 56.9913Z" fill="white"/>
<path d="M113.666 56.9913L111.952 58.7054L112.207 58.9605L113.921 57.2464L113.666 56.9913Z" fill="white"/>
<path d="M46.2912 56.7479C46.5581 56.5713 46.7836 56.3389 46.9521 56.0667C47.1206 55.7944 47.228 55.4889 47.2669 55.1712C47.3059 54.8534 47.2755 54.531 47.1778 54.2262C47.0801 53.9213 46.9174 53.6413 46.701 53.4054L43.7582 50.1977L40.9316 51.6288L43.0951 55.9017C43.2361 56.1803 43.4345 56.4259 43.6772 56.6223C43.9199 56.8188 44.2015 56.9617 44.5033 57.0416C44.8052 57.1215 45.1205 57.1367 45.4287 57.0861C45.7368 57.0354 46.0307 56.9202 46.2912 56.7479Z" fill="#FFB8B8"/>
<path d="M8.25067 66.2744C8.56865 66.2374 8.87482 66.1319 9.14808 65.9652C9.42133 65.7984 9.65517 65.5744 9.83345 65.3085C10.0117 65.0426 10.1302 64.7412 10.1808 64.4251C10.2313 64.109 10.2127 63.7857 10.1261 63.4775L8.9497 59.2864H5.78149V64.0757C5.78149 64.388 5.84756 64.6967 5.97535 64.9816C6.10315 65.2665 6.28978 65.5212 6.52298 65.7288C6.75618 65.9365 7.03068 66.0924 7.32845 66.1865C7.62621 66.2805 7.9405 66.3105 8.25067 66.2744Z" fill="#FFB8B8"/>
<path d="M26.5508 97.8916L32.5353 96.9529L30.0712 94.3713H26.5508V97.8916Z" fill="#FFB8B8"/>
<path d="M7.30713 98.1262L13.5262 99.769C12.3807 97.3928 11.6754 95.2904 12.1181 93.9019L9.18458 93.5499L7.30713 98.1262Z" fill="#FFB8B8"/>
<path d="M8.59766 94.1366L12.2353 94.8407L22.2093 62.6893L26.4335 94.7234H30.3059L29.9537 49.4298H14.9341L8.59766 94.1366Z" fill="#575A88"/>
<path d="M27.6965 99.3165L33.616 97.3693C33.7731 97.3177 33.9172 97.2328 34.0385 97.1205C34.1598 97.0081 34.2555 96.871 34.3191 96.7184C34.3826 96.5658 34.4126 96.4013 34.4069 96.236C34.4012 96.0708 34.36 95.9087 34.286 95.7609C34.1845 95.5578 34.0252 95.3893 33.8282 95.2766C33.6312 95.1638 33.4052 95.1118 33.1787 95.1271L31.8359 95.2178L31.3097 94.9217C31.2542 94.8905 31.1905 94.8773 31.1272 94.884C31.0639 94.8908 31.0043 94.917 30.9567 94.9592C30.9091 95.0013 30.8757 95.0573 30.8614 95.1193C30.847 95.1812 30.8523 95.2461 30.8765 95.305L31.3618 96.4835L26.4335 96.1315L26.1903 98.0768C26.1662 98.2699 26.1913 98.4661 26.2633 98.6469C26.3353 98.8278 26.4519 98.9875 26.6022 99.1112C26.7525 99.235 26.9316 99.3187 27.1229 99.3546C27.3143 99.3904 27.5116 99.3774 27.6965 99.3165Z" fill="#575A88"/>
<path d="M7.68927 100.212L14.124 100.629C14.2947 100.64 14.4658 100.614 14.6257 100.553C14.7855 100.492 14.9303 100.397 15.0503 100.276C15.1703 100.154 15.2626 100.007 15.3209 99.8464C15.3793 99.6856 15.4023 99.5141 15.3885 99.3436C15.3694 99.1094 15.2816 98.8861 15.136 98.7018C14.9904 98.5174 14.7936 98.3802 14.5703 98.3074L13.2462 97.8759L12.8554 97.3883C12.8142 97.3369 12.7581 97.2997 12.6948 97.2817C12.6314 97.2637 12.5641 97.2659 12.5021 97.288C12.4401 97.31 12.3864 97.3509 12.3487 97.4048C12.311 97.4588 12.291 97.5231 12.2915 97.5889L12.3021 98.9078L7.70705 96.6662L6.72223 98.4397C6.62444 98.6158 6.57277 98.8138 6.57203 99.0152C6.57129 99.2167 6.6215 99.415 6.718 99.5919C6.81451 99.7687 6.95416 99.9182 7.12397 100.027C7.29379 100.135 7.48824 100.199 7.68927 100.212Z" fill="#575A88"/>
<path d="M21.3878 24.0841C23.7856 24.0841 25.7294 22.1403 25.7294 19.7425C25.7294 17.3447 23.7856 15.4009 21.3878 15.4009C18.99 15.4009 17.0461 17.3447 17.0461 19.7425C17.0461 22.1403 18.99 24.0841 21.3878 24.0841Z" fill="#FFB8B8"/>
<path d="M18.5718 27.7217H24.5562V21.972H18.5718C19.0663 23.7477 19.0024 25.6825 18.5718 27.7217Z" fill="#FFB8B8"/>
<path d="M14.1127 50.0165L30.5405 50.2512L32.1833 32.8957C32.1833 31.7634 31.8286 30.6595 31.1691 29.739C30.5097 28.8186 29.5785 28.1278 28.5063 27.7637L25.9642 26.9003L24.5561 25.2575C22.7783 24.8733 20.844 24.9665 18.8064 25.3749L17.281 27.6044L15.6383 28.1286C14.522 28.4849 13.5517 29.1944 12.8738 30.1502C12.196 31.106 11.8472 32.2563 11.8801 33.4276C13.1024 39.7412 14.0529 45.609 14.1127 50.0165Z" fill="#F2994A"/>
<path d="M5.19482 59.2864L9.30176 59.7558L13.9954 40.8639L14.4648 28.6604L14.3262 28.7275C13.2398 29.2531 12.2908 30.0245 11.5542 30.9806C10.8177 31.9367 10.3139 33.0511 10.0828 34.2356L5.19482 59.2864Z" fill="#F2994A"/>
<path d="M41.1013 52.2459L44.2695 50.7205L34.9768 33.3805C33.6272 30.8622 31.4333 28.9001 28.7805 27.839L30.5406 38.869L41.1013 52.2459Z" fill="#F2994A"/>
<path d="M18.7046 23.6502C18.7046 23.6502 22.9619 23.3977 23.0541 22.6613C23.1462 21.9249 23.7678 20.2451 24.5042 20.3373C25.2406 20.4294 27.2814 17.9746 26.8443 16.985C26.4072 15.9954 24.3443 12.3519 20.1328 14.0312C15.9213 15.7105 16.4039 19.9218 16.841 20.9114C17.2781 21.901 18.7046 23.6502 18.7046 23.6502Z" fill="#2F2E41"/>
<path d="M122.895 76.866C122.849 76.8661 122.803 76.8815 122.766 76.9098C122.73 76.9381 122.703 76.9777 122.691 77.0227L122.349 78.2928C122.34 78.3242 122.339 78.3571 122.346 78.389C122.352 78.4208 122.365 78.4508 122.385 78.4766C122.405 78.5024 122.43 78.5233 122.46 78.5377C122.489 78.5521 122.521 78.5596 122.553 78.5596H129.057C129.09 78.5596 129.124 78.5515 129.154 78.536C129.184 78.5206 129.209 78.4981 129.229 78.4706C129.249 78.4432 129.261 78.4114 129.266 78.378C129.271 78.3446 129.268 78.3105 129.257 78.2786L128.817 77.0085C128.803 76.9669 128.776 76.9308 128.74 76.9053C128.704 76.8798 128.661 76.866 128.617 76.866H122.895Z" fill="#F2994A"/>
<path d="M113.399 76.866C113.353 76.8661 113.308 76.8815 113.271 76.9098C113.234 76.9381 113.207 76.9777 113.195 77.0227L112.853 78.2928C112.845 78.3242 112.843 78.3571 112.85 78.389C112.856 78.4208 112.87 78.4508 112.889 78.4766C112.909 78.5024 112.935 78.5233 112.964 78.5377C112.993 78.5521 113.025 78.5596 113.057 78.5596H119.561C119.595 78.5596 119.628 78.5515 119.658 78.536C119.688 78.5206 119.714 78.4981 119.733 78.4706C119.753 78.4432 119.766 78.4114 119.77 78.378C119.775 78.3446 119.772 78.3105 119.761 78.2786L119.321 77.0085C119.307 76.9669 119.28 76.9308 119.244 76.9053C119.208 76.8798 119.165 76.866 119.121 76.866H113.399Z" fill="#F2994A"/>
</g>
<defs>
<clipPath id="clip0">
<rect width="160" height="110.867" fill="white"/>
</clipPath>
</defs>
</svg>
