<svg width="45" height="45" viewBox="0 0 45 45" fill="none" xmlns="http://www.w3.org/2000/svg">
    <path d="M22.0464 44.0923C17.686 44.0924 13.4236 42.7994 9.7981 40.377C6.17261 37.9545 3.34687 34.5114 1.67822 30.483C0.00957362 26.4546 -0.427036 22.0218 0.4236 17.7453C1.27424 13.4687 3.37391 9.54047 6.45712 6.45724C9.54032 3.37401 13.4686 1.2743 17.7451 0.423632C22.0217 -0.427038 26.4544 0.00954465 30.4828 1.67816C34.5113 3.34678 37.9544 6.17248 40.3769 9.79796C42.7994 13.4234 44.0923 17.6859 44.0923 22.0462C44.0857 27.8911 41.7609 33.4948 37.6279 37.6278C33.4949 41.7608 27.8913 44.0857 22.0464 44.0923Z" fill="#F2994A"/>
    <path d="M20.9202 29.8009C20.3732 29.8018 19.8408 29.6249 19.4032 29.2967L19.376 29.2764L13.662 24.9053C13.3972 24.7025 13.1749 24.4495 13.0079 24.1607C12.8409 23.872 12.7324 23.5531 12.6887 23.2225C12.6449 22.8918 12.6668 22.5557 12.7529 22.2335C12.8391 21.9113 12.9879 21.6092 13.1908 21.3444C13.3938 21.0797 13.6469 20.8576 13.9357 20.6907C14.2245 20.5238 14.5434 20.4155 14.8741 20.3719C15.2048 20.3283 15.5408 20.3503 15.863 20.4366C16.1852 20.5229 16.4872 20.6718 16.7519 20.8749L20.453 23.713L29.1989 12.303C29.4017 12.0385 29.6546 11.8165 29.9432 11.6497C30.2318 11.4829 30.5504 11.3746 30.8809 11.3309C31.2114 11.2873 31.5472 11.3092 31.8692 11.3953C32.1912 11.4814 32.4931 11.6301 32.7576 11.8329L32.7584 11.8335L32.7041 11.9089L32.7598 11.8335C33.2935 12.2437 33.6427 12.8488 33.7307 13.5161C33.8187 14.1834 33.6384 14.8584 33.2293 15.3929L22.9422 28.8076C22.7042 29.1167 22.3982 29.3668 22.048 29.5386C21.6977 29.7103 21.3126 29.799 20.9225 29.7979L20.9202 29.8009Z" fill="white"/>
</svg>
