<svg width="12" height="12" viewBox="0 0 15 15" fill="none" xmlns="http://www.w3.org/2000/svg">
<path d="M9.92935 4.15761C10.4511 4.74457 10.6957 5.54348 10.5815 6.3913C10.3859 7.95652 9.24457 8.51087 8.2337 8.51087C8.18478 8.51087 8.15217 8.51087 8.15217 8.51087V8.90217C8.15217 9.26087 7.8587 9.55435 7.5 9.55435C7.1413 9.55435 6.84783 9.26087 6.84783 8.90217V8.38044C6.84783 7.84239 7.07609 7.20652 8.2337 7.20652C8.86957 7.20652 9.19565 6.88044 9.27717 6.22826C9.30978 6.0163 9.32609 5.44565 8.93478 5.02174C8.625 4.67935 8.11957 4.5 7.43478 4.5C5.96739 4.5 5.91848 5.46196 5.91848 5.55978C5.91848 5.91848 5.625 6.21196 5.2663 6.21196C4.90761 6.21196 4.61413 5.91848 4.61413 5.55978C4.61413 4.90761 5.11957 3.19565 7.43478 3.19565C8.78804 3.19565 9.53804 3.71739 9.92935 4.15761ZM7.45109 10.1087C7.23913 10.1087 7.02717 10.1902 6.88044 10.3533C6.7337 10.5 6.63587 10.712 6.63587 10.9239C6.63587 11.1359 6.71739 11.3478 6.88044 11.4946C7.02717 11.6413 7.23913 11.7391 7.45109 11.7391C7.66304 11.7391 7.875 11.6576 8.02174 11.4946C8.16848 11.3478 8.2663 11.1359 8.2663 10.9239C8.2663 10.712 8.18478 10.5 8.02174 10.3533C7.875 10.2065 7.67935 10.1087 7.45109 10.1087ZM15 7.5C15 11.6413 11.6413 15 7.5 15C3.3587 15 0 11.6413 0 7.5C0 3.3587 3.3587 0 7.5 0C11.6413 0 15 3.3587 15 7.5ZM13.6957 7.5C13.6957 4.07609 10.9239 1.30435 7.5 1.30435C4.07609 1.30435 1.30435 4.07609 1.30435 7.5C1.30435 10.9239 4.07609 13.6957 7.5 13.6957C10.9239 13.6957 13.6957 10.9239 13.6957 7.5Z" fill="#F2994A"/>
</svg>
